HIERARCHY
ROOT hip
{
  OFFSET 11.3 83.8927 39.6682
  CHANNELS 6 Xposition Yposition Zposition Zrotation Xrotation Yrotation
  JOINT abdomen
  {
    OFFSET 0 20.6881 -0.73152
    CHANNELS 3 Zrotation Xrotation Yrotation
    JOINT chest
    {
      OFFSET 0 11.7043 -0.48768
      CHANNELS 3 Zrotation Xrotation Yrotation
      JOINT neck
      {
        OFFSET 0 22.1894 -2.19456
        CHANNELS 3 Zrotation Xrotation Yrotation
        JOINT head
        {
          OFFSET -0.24384 7.07133 1.2192
          CHANNELS 3 Zrotation Xrotation Yrotation
          JOINT leftEye
          {
            OFFSET 4.14528 8.04674 8.04672
            CHANNELS 3 Zrotation Xrotation Yrotation
            End Site
            {
              OFFSET 1 0 0
            }
          }
          JOINT rightEye
          {
            OFFSET -3.6576 8.04674 8.04672
            CHANNELS 3 Zrotation Xrotation Yrotation
            End Site
            {
              OFFSET 1 0 0
            }
          }
        }
      }
      JOINT rCollar
      {
        OFFSET -2.68224 19.2634 -4.8768
        CHANNELS 3 Zrotation Xrotation Yrotation
        JOINT rShldr
        {
          OFFSET -8.77824 -1.95073 1.46304
          CHANNELS 3 Zrotation Xrotation Yrotation
          JOINT rForeArm
          {
            OFFSET -28.1742 -1.7115 0.48768
            CHANNELS 3 Zrotation Xrotation Yrotation
            JOINT rHand
            {
              OFFSET -22.5879 0.773209 7.07136
              CHANNELS 3 Zrotation Xrotation Yrotation
              JOINT rThumb1
              {
                OFFSET -1.2192 -0.487915 3.41376
                CHANNELS 3 Zrotation Xrotation Yrotation
                JOINT rThumb2
                {
                  OFFSET -3.37035 -0.52449 3.41376
                  CHANNELS 3 Zrotation Xrotation Yrotation
                  End Site
                  {
                    OFFSET -1.78271 -1.18214 1.43049
                  }
                }
              }
              JOINT rIndex1
              {
                OFFSET -7.75947 0.938293 5.60832
                CHANNELS 3 Zrotation Xrotation Yrotation
                JOINT rIndex2
                {
                  OFFSET -2.54057 -0.884171 1.56538
                  CHANNELS 3 Zrotation Xrotation Yrotation
                  End Site
                  {
                    OFFSET -1.62519 -0.234802 1.16502
                  }
                }
              }
              JOINT rMid1
              {
                OFFSET -8.24714 1.18213 3.41376
                CHANNELS 3 Zrotation Xrotation Yrotation
                JOINT rMid2
                {
                  OFFSET -3.10165 -0.590103 1.0647
                  CHANNELS 3 Zrotation Xrotation Yrotation
                  End Site
                  {
                    OFFSET -2.48547 -0.328903 0.83742
                  }
                }
              }
              JOINT rRing1
              {
                OFFSET -8.82822 0.546677 1.51678
                CHANNELS 3 Zrotation Xrotation Yrotation
                JOINT rRing2
                {
                  OFFSET -2.60934 -0.819778 -0.0198488
                  CHANNELS 3 Zrotation Xrotation Yrotation
                  End Site
                  {
                    OFFSET -2.33842 -0.294052 0.168128
                  }
                }
              }
              JOINT rPinky1
              {
                OFFSET -8.27202 -0.0477905 -0.4584
                CHANNELS 3 Zrotation Xrotation Yrotation
                JOINT rPinky2
                {
                  OFFSET -1.82734 -0.647385 -0.700984
                  CHANNELS 3 Zrotation Xrotation Yrotation
                  End Site
                  {
                    OFFSET -1.69225 -0.51767 -0.607171
                  }
                }
              }
            }
          }
        }
      }
      JOINT lCollar
      {
        OFFSET 2.68224 19.2634 -4.8768
        CHANNELS 3 Zrotation Xrotation Yrotation
        JOINT lShldr
        {
          OFFSET 8.77824 -1.95073 1.46304
          CHANNELS 3 Zrotation Xrotation Yrotation
          JOINT lForeArm
          {
            OFFSET 28.1742 -1.7115 0.48768
            CHANNELS 3 Zrotation Xrotation Yrotation
            JOINT lHand
            {
              OFFSET 22.5879 0.773209 7.07136
              CHANNELS 3 Zrotation Xrotation Yrotation
              JOINT lThumb1
              {
                OFFSET 1.2192 -0.487915 3.41376
                CHANNELS 3 Zrotation Xrotation Yrotation
                JOINT lThumb2
                {
                  OFFSET 3.37035 -0.52449 3.41376
                  CHANNELS 3 Zrotation Xrotation Yrotation
                  End Site
                  {
                    OFFSET 1.78271 -1.18214 1.43049
                  }
                }
              }
              JOINT lIndex1
              {
                OFFSET 7.75947 0.938293 5.60832
                CHANNELS 3 Zrotation Xrotation Yrotation
                JOINT lIndex2
                {
                  OFFSET 2.54057 -0.884171 1.56538
                  CHANNELS 3 Zrotation Xrotation Yrotation
                  End Site
                  {
                    OFFSET 1.62519 -0.234802 1.16502
                  }
                }
              }
              JOINT lMid1
              {
                OFFSET 8.24714 1.18213 3.41376
                CHANNELS 3 Zrotation Xrotation Yrotation
                JOINT lMid2
                {
                  OFFSET 3.10165 -0.590103 1.0647
                  CHANNELS 3 Zrotation Xrotation Yrotation
                  End Site
                  {
                    OFFSET 2.48547 -0.328903 0.83742
                  }
                }
              }
              JOINT lRing1
              {
                OFFSET 8.82822 0.546677 1.51678
                CHANNELS 3 Zrotation Xrotation Yrotation
                JOINT lRing2
                {
                  OFFSET 2.60934 -0.819778 -0.0198488
                  CHANNELS 3 Zrotation Xrotation Yrotation
                  End Site
                  {
                    OFFSET 2.33842 -0.294052 0.168128
                  }
                }
              }
              JOINT lPinky1
              {
                OFFSET 8.27202 -0.0477905 -0.4584
                CHANNELS 3 Zrotation Xrotation Yrotation
                JOINT lPinky2
                {
                  OFFSET 1.82734 -0.647385 -0.700984
                  CHANNELS 3 Zrotation Xrotation Yrotation
                  End Site
                  {
                    OFFSET 1.69225 -0.51767 -0.607171
                  }
                }
              }
            }
          }
        }
      }
    }
  }
  JOINT rButtock
  {
    OFFSET -8.77824 4.35084 1.2192
    CHANNELS 3 Zrotation Xrotation Yrotation
    JOINT rThigh
    {
      OFFSET 0 -1.70687 -2.19456
      CHANNELS 3 Zrotation Xrotation Yrotation
      JOINT rShin
      {
        OFFSET 0 -36.8199 0.73152
        CHANNELS 3 Zrotation Xrotation Yrotation
        JOINT rFoot
        {
          OFFSET 0.73152 -45.1104 -5.12064
          CHANNELS 3 Zrotation Xrotation Yrotation
          End Site
          {
            OFFSET -1.1221 -3.69964 12.103
          }
        }
      }
    }
  }
  JOINT lButtock
  {
    OFFSET 8.77824 4.35084 1.2192
    CHANNELS 3 Zrotation Xrotation Yrotation
    JOINT lThigh
    {
      OFFSET 0 -1.70687 -2.19456
      CHANNELS 3 Zrotation Xrotation Yrotation
      JOINT lShin
      {
        OFFSET 0 -36.8199 0.73152
        CHANNELS 3 Zrotation Xrotation Yrotation
        JOINT lFoot
        {
          OFFSET -0.73152 -45.1104 -5.12064
          CHANNELS 3 Zrotation Xrotation Yrotation
          End Site
          {
            OFFSET 1.1221 -3.69964 12.103
          }
        }
      }
    }
  }
}
MOTION
Frames:	6
Frame Time:	0.00833333
8.34859 37.6088 5.3993 1.48212 -31.3985 -0.0797891 -2.56822 39.6988 3.15865 2.67268 -4.94248 0.724644 2.16059 3.24421 3.91873 -7.59484 -18.761 6.09764 -0 0 0 -0 0 0 -3.75246e-014 3.11696e-013 -2.73329e-014 71.3255 41.8459 11.6262 -28.039 -30.8497 68.6067 -0.0343242 5.28075 0.744291 -3.37553e-009 -7.27659e-008 4.53625e-009 -5.81786e-009 -1.25816e-007 7.85614e-009 -3.37552e-009 -7.27658e-008 4.53624e-009 7.73091 5.47488 0.417314 -3.37553e-009 -7.27658e-008 4.53624e-009 2.90554 0.965183 0.102902 -3.37552e-009 -7.27658e-008 4.53624e-009 10.2786 0.731801 0.0259123 -3.37552e-009 -7.27659e-008 4.53625e-009 2.22167 -0.733487 -0.20892 -3.76184e-014 3.11693e-013 -2.75317e-014 -84.0321 40.5851 -5.20472 28.1861 -31.8697 -70.2439 0.00111571 0.953726 -0.13405 2.93095e-009 -9.77318e-008 -5.53437e-009 5.06293e-009 -1.69051e-007 -9.56892e-009 2.93095e-009 -9.77318e-008 -5.53437e-009 -7.73091 5.47488 -0.417314 2.93095e-009 -9.77318e-008 -5.53437e-009 -2.90554 0.965183 -0.102902 2.93095e-009 -9.77318e-008 -5.53437e-009 -10.2786 0.731801 -0.0259123 2.93095e-009 -9.77318e-008 -5.53437e-009 -2.22167 -0.733487 0.20892 -2.03217e-016 0 -3.88251e-019 -57.7799 -67.3247 -59.6877 -176.638 63.4247 177.368 0.0778942 -7.53757 0.703854 2.03217e-016 0 3.88251e-019 61.1592 -60.4197 61.339 176.484 63.5094 -176.667 -7.7646 -14.5429 -16.6539 
8.34523 37.6039 5.39965 1.49407 -31.412 -0.0765949 -2.63269 39.7774 3.17504 2.6959 -4.93547 0.724653 2.16574 3.25021 3.9157 -7.54355 -18.7611 6.10129 -0 0 0 -0 0 0 -2.23143e-014 2.73741e-013 -2.32058e-014 71.3318 41.8784 11.6357 -28.0462 -30.8947 68.6783 -0.0341049 5.26391 0.741904 -2.56706e-009 -5.41356e-008 3.3307e-009 -4.42441e-009 -9.35935e-008 5.76768e-009 -2.56706e-009 -5.41355e-008 3.33069e-009 7.73091 5.47488 0.417314 -2.56707e-009 -5.41355e-008 3.33069e-009 2.90554 0.965183 0.102902 -2.56705e-009 -5.41355e-008 3.3307e-009 10.2786 0.731801 0.0259123 -2.56706e-009 -5.41356e-008 3.33071e-009 2.22167 -0.733487 -0.20892 -2.24495e-014 2.73737e-013 -2.34092e-014 -84.0379 40.5675 -5.21236 28.1901 -31.9015 -70.2953 0.00101448 0.910405 -0.12796 2.21017e-009 -7.18704e-008 -4.08035e-009 3.81727e-009 -1.2431e-007 -7.05422e-009 2.21017e-009 -7.18704e-008 -4.08035e-009 -7.73091 5.47488 -0.417314 2.21017e-009 -7.18705e-008 -4.08035e-009 -2.90554 0.965183 -0.102902 2.21017e-009 -7.18704e-008 -4.08035e-009 -10.2786 0.731801 -0.0259123 2.21018e-009 -7.18705e-008 -4.08035e-009 -2.22167 -0.733487 0.20892 -2.03217e-016 0 -3.88251e-019 -57.786 -67.3202 -59.6778 -176.634 63.4309 177.364 0.0837341 -7.52778 0.718901 2.03217e-016 0 3.88251e-019 61.1053 -60.4066 61.2957 176.483 63.5221 -176.667 -7.76666 -14.5612 -16.6464 
8.3505 37.5981 5.39889 1.5257 -31.4299 -0.062984 -2.73003 39.858 3.20185 2.7266 -4.94068 0.727179 2.14989 3.25786 3.91059 -7.42528 -18.7235 6.12048 -0 0 0 -0 0 0 4.48746e-015 1.62012e-013 -1.14301e-014 71.3747 41.9145 11.6173 -28.0543 -30.9459 68.7602 -0.0337527 5.23663 0.738037 -9.17554e-010 -1.69369e-008 9.53472e-010 -1.58143e-009 -2.9263e-008 1.64993e-009 -9.17552e-010 -1.69369e-008 9.53458e-010 7.73091 5.47488 0.417314 -9.17558e-010 -1.69369e-008 9.53466e-010 2.90554 0.965183 0.102902 -9.17545e-010 -1.69369e-008 9.53468e-010 10.2786 0.731801 0.0259123 -9.1755e-010 -1.69369e-008 9.5348e-010 2.22167 -0.733487 -0.20892 4.30909e-015 1.62006e-013 -1.16289e-014 -84.0537 40.5435 -5.20641 28.1932 -31.9257 -70.3345 0.000903399 0.857807 -0.120566 7.51847e-010 -2.1115e-008 -1.20707e-009 1.29738e-009 -3.65113e-008 -2.08555e-009 7.51843e-010 -2.1115e-008 -1.20708e-009 -7.73091 5.47488 -0.417314 7.51843e-010 -2.1115e-008 -1.20707e-009 -2.90554 0.965183 -0.102902 7.51842e-010 -2.1115e-008 -1.20707e-009 -10.2786 0.731801 -0.0259123 7.51852e-010 -2.1115e-008 -1.20707e-009 -2.22167 -0.733487 0.20892 -2.03217e-016 0 -3.88251e-019 -57.8144 -67.3192 -59.6674 -176.629 63.4362 177.361 0.0935128 -7.51255 0.742425 2.03217e-016 0 3.88251e-019 61.0065 -60.395 61.2256 176.48 63.5429 -176.666 -7.76861 -14.5825 -16.6351 
8.36103 37.6026 5.40457 1.55609 -31.4461 -0.0483099 -2.82146 39.9359 3.22657 2.75522 -4.94583 0.730087 2.11909 3.26859 3.90479 -7.28199 -18.6826 6.14606 -0 0 0 -0 0 0 3.12598e-014 3.48765e-014 1.14068e-015 71.4199 41.9426 11.5971 -28.062 -30.9948 68.8387 -0.0334865 5.21588 0.735097 8.21065e-010 2.19575e-008 -1.52081e-009 1.41514e-009 3.7998e-008 -2.63579e-009 8.21065e-010 2.19576e-008 -1.52082e-009 7.73091 5.47488 0.417314 8.21062e-010 2.19575e-008 -1.52081e-009 2.90554 0.965183 0.102902 8.21072e-010 2.19576e-008 -1.52081e-009 10.2786 0.731801 0.0259123 8.21068e-010 2.19576e-008 -1.5208e-009 2.22167 -0.733487 -0.20892 3.10473e-014 3.48701e-014 9.46555e-016 -84.0706 40.5197 -5.19962 28.1962 -31.95 -70.3735 0.000783778 0.797564 -0.112098 -7.78128e-010 3.17105e-008 1.78737e-009 -1.34621e-009 5.48663e-008 3.09246e-009 -7.78135e-010 3.17105e-008 1.78736e-009 -7.73091 5.47488 -0.417314 -7.78132e-010 3.17105e-008 1.78736e-009 -2.90554 0.965183 -0.102902 -7.78136e-010 3.17105e-008 1.78737e-009 -10.2786 0.731801 -0.0259123 -7.78123e-010 3.17105e-008 1.78736e-009 -2.22167 -0.733487 0.20892 -2.03217e-016 0 -3.88251e-019 -57.8378 -67.3196 -59.6526 -176.625 63.4415 177.357 0.103406 -7.49629 0.766018 2.03217e-016 0 3.88251e-019 60.9093 -60.3879 61.1565 176.478 63.5631 -176.664 -7.76963 -14.601 -16.6231 
8.3605 37.6099 5.4118 1.56435 -31.4545 -0.0419355 -2.86811 40.0065 3.23664 2.77222 -4.93868 0.731244 2.07937 3.2838 3.89971 -7.1556 -18.6729 6.16886 -0 0 0 -0 0 0 4.63822e-014 -4.92963e-014 7.65321e-015 71.4327 41.9509 11.6013 -28.0678 -31.0329 68.9 -0.0335191 5.21867 0.735491 1.89686e-009 4.56755e-008 -3.0175e-009 3.26935e-009 7.90124e-008 -5.22815e-009 1.89686e-009 4.56755e-008 -3.01752e-009 7.73091 5.47488 0.417314 1.89685e-009 4.56754e-008 -3.0175e-009 2.90554 0.965183 0.102902 1.89686e-009 4.56755e-008 -3.0175e-009 10.2786 0.731801 0.0259123 1.89686e-009 4.56755e-008 -3.01749e-009 2.22167 -0.733487 -0.20892 4.61552e-014 -4.93033e-014 7.45443e-015 -84.0798 40.503 -5.20475 28.2003 -31.9819 -70.4245 0.00065598 0.731313 -0.102785 -1.71386e-009 6.3782e-008 3.60487e-009 -2.96294e-009 1.10342e-007 6.23518e-009 -1.71387e-009 6.37819e-008 3.60486e-009 -7.73091 5.47488 -0.417314 -1.71387e-009 6.3782e-008 3.60486e-009 -2.90554 0.965183 -0.102902 -1.71387e-009 6.3782e-008 3.60487e-009 -10.2786 0.731801 -0.0259123 -1.71386e-009 6.3782e-008 3.60486e-009 -2.22167 -0.733487 0.20892 -2.03217e-016 0 -3.88251e-019 -57.8291 -67.319 -59.63 -176.622 63.4475 177.354 0.109605 -7.48341 0.781272 2.03217e-016 0 3.88251e-019 60.8604 -60.3886 61.1157 176.477 63.574 -176.665 -7.76893 -14.6107 -16.6135 
8.34316 37.6038 5.41013 1.53465 -31.4507 -0.0501414 -2.84104 40.0623 3.22142 2.77185 -4.91457 0.72972 2.02098 3.30743 3.89555 -7.04323 -18.7122 6.19011 -0 0 0 -0 0 0 4.4686e-014 -6.97089e-014 5.42193e-015 71.3974 41.9326 11.6395 -28.0712 -31.0547 68.9352 -0.0339919 5.25579 0.740752 1.97374e-009 4.64714e-008 -3.03664e-009 3.40199e-009 8.03852e-008 -5.26108e-009 1.97374e-009 4.64714e-008 -3.03665e-009 7.73091 5.47488 0.417314 1.97373e-009 4.64714e-008 -3.03664e-009 2.90554 0.965183 0.102902 1.97374e-009 4.64714e-008 -3.03664e-009 10.2786 0.731801 0.0259123 1.97373e-009 4.64714e-008 -3.03662e-009 2.22167 -0.733487 -0.20892 4.44719e-014 -6.9716e-014 5.20179e-015 -84.0835 40.4948 -5.22545 28.2052 -32.0215 -70.4883 0.000507431 0.651214 -0.091526 -1.75171e-009 6.43737e-008 3.64127e-009 -3.02806e-009 1.11364e-007 6.29785e-009 -1.75171e-009 6.43737e-008 3.64127e-009 -7.73091 5.47488 -0.417314 -1.75171e-009 6.43737e-008 3.64126e-009 -2.90554 0.965183 -0.102902 -1.75172e-009 6.43737e-008 3.64127e-009 -10.2786 0.731801 -0.0259123 -1.7517e-009 6.43737e-008 3.64127e-009 -2.22167 -0.733487 0.20892 -2.03217e-016 0 -3.88251e-019 -57.764 -67.3152 -59.5928 -176.619 63.4556 177.351 0.109799 -7.47627 0.782908 2.03217e-016 0 3.88251e-019 60.8934 -60.3995 61.1231 176.478 63.57 -176.669 -7.76655 -14.6069 -16.6095 
